<?xml version="1.0" encoding="utf-8"?>
<!-- Generator: Adobe Illustrator 23.1.1, SVG Export Plug-In . SVG Version: 6.00 Build 0)  -->
<svg version="1.1" id="Capa_1" xmlns="http://www.w3.org/2000/svg" xmlns:xlink="http://www.w3.org/1999/xlink" x="0px" y="0px"
	 viewBox="0 0 500 185" style="enable-background:new 0 0 500 185;" xml:space="preserve">
<style type="text/css">
	.st0{display:none;}
	.st1{display:inline;fill:#1A1A1A;}
	.st2{fill:#FFFFFF;}
</style>
<g id="back" class="st0">
	<rect class="st1" width="500" height="185"/>
</g>
<g id="logo">
	<g>
		<g>
			<path class="st2" d="M29.9,70.5v112.73H6.14V70.5H29.9z M35.48,35.14c0,9.72-7.88,17.6-17.6,17.6s-17.6-7.88-17.6-17.6
				C0.28,25.42,14.34,0,17.88,0S35.48,25.42,35.48,35.14z"/>
			<path class="st2" d="M220.88,24.08v159.15h-22.77V74.15c0-1.77,0.06-3.7,0.17-5.8c0.11-2.1,0.28-4.22,0.5-6.36l-51.17,94.49
				c-1.99,3.91-5.05,5.86-9.17,5.86h-3.65c-4.2,0-7.26-1.95-9.17-5.86L73.67,61.77c0.22,2.14,0.39,4.27,0.5,6.41
				s0.17,4.13,0.17,5.97v109.08H51.56V24.08H70.9c2.28,0,4.05,0.2,5.3,0.61s2.39,1.64,3.43,3.7l51.06,92.51
				c1.11,2.14,2.16,4.33,3.15,6.58c0.99,2.25,1.9,4.55,2.71,6.91c0.88-2.36,1.82-4.7,2.82-7.02c0.99-2.32,2.04-4.55,3.15-6.69
				l50.29-92.28c1.03-2.06,2.17-3.3,3.43-3.7c1.25-0.4,3.02-0.61,5.3-0.61h19.34V24.08z"/>
			<path class="st2" d="M237.35,86.2c12.75-11.86,27.92-17.79,45.53-17.79c6.48,0,12.25,1.05,17.3,3.15s9.28,5.07,12.71,8.9
				s6.04,8.38,7.85,13.65c1.8,5.27,2.71,11.11,2.71,17.52v71.62h-10.61c-2.28,0-4.02-0.35-5.19-1.05c-1.18-0.7-2.17-2.12-2.98-4.25
				l-2.32-9.17c-2.87,2.58-5.71,4.88-8.51,6.91c-2.8,2.03-5.69,3.74-8.68,5.14c-2.98,1.4-6.19,2.45-9.62,3.15s-7.2,1.05-11.33,1.05
				c-4.57,0-8.82-0.63-12.77-1.88c-3.94-1.25-7.35-3.15-10.22-5.69c-2.87-2.54-5.14-5.69-6.8-9.45s-2.49-8.18-2.49-13.26
				c0-4.35,1.16-8.58,3.48-12.71c2.32-4.13,6.15-7.83,11.49-11.11c5.34-3.28,12.38-5.99,21.11-8.12c8.73-2.14,19.51-3.35,32.33-3.65
				v-7.52c0-8.1-1.73-14.15-5.19-18.13c-3.46-3.98-8.55-5.97-15.25-5.97c-4.57,0-8.4,0.57-11.49,1.71s-5.78,2.38-8.07,3.7
				c-2.28,1.33-4.31,2.56-6.08,3.7s-3.65,1.71-5.64,1.71c-1.62,0-3-0.42-4.14-1.27s-2.08-1.9-2.82-3.15L237.35,86.2z M300.34,133.94
				c-8.47,0.3-15.62,0.98-21.44,2.04c-5.82,1.07-10.54,2.43-14.15,4.09s-6.21,3.63-7.79,5.91c-1.59,2.28-2.38,4.79-2.38,7.51
				c0,2.65,0.42,4.92,1.27,6.8c0.85,1.88,2.03,3.43,3.54,4.64c1.51,1.22,3.28,2.1,5.3,2.65c2.03,0.55,4.25,0.83,6.69,0.83
				c6.19,0,11.51-1.16,15.97-3.48c4.46-2.32,8.79-5.69,12.99-10.11L300.34,133.94L300.34,133.94z"/>
			<path class="st2" d="M407.44,90.95c-0.59,1.03-1.25,1.77-1.99,2.21s-1.66,0.66-2.76,0.66c-1.25,0-2.62-0.39-4.09-1.16
				c-1.47-0.77-3.2-1.64-5.19-2.6s-4.33-1.82-7.02-2.6c-2.69-0.77-5.84-1.16-9.45-1.16c-2.95,0-5.62,0.35-8.01,1.05
				c-2.4,0.7-4.42,1.7-6.08,2.98c-1.66,1.29-2.93,2.8-3.81,4.53c-0.88,1.73-1.33,3.59-1.33,5.58c0,2.65,0.81,4.86,2.43,6.63
				s3.76,3.3,6.41,4.59s5.67,2.45,9.06,3.48c3.39,1.03,6.85,2.14,10.39,3.32s7,2.54,10.39,4.09c3.39,1.55,6.41,3.45,9.06,5.69
				c2.65,2.25,4.79,4.97,6.41,8.18s2.43,7.09,2.43,11.66c0,5.3-0.96,10.21-2.87,14.7c-1.92,4.49-4.72,8.4-8.4,11.71
				c-3.69,3.32-8.27,5.9-13.76,7.74c-5.49,1.84-11.77,2.76-18.84,2.76c-3.91,0-7.68-0.35-11.33-1.05s-7.11-1.66-10.39-2.87
				c-3.28-1.22-6.34-2.67-9.17-4.37c-2.84-1.69-5.36-3.54-7.57-5.53l5.53-9.06c0.66-1.11,1.49-1.97,2.49-2.6
				c0.99-0.62,2.23-0.94,3.7-0.94c1.55,0,3.08,0.5,4.59,1.49s3.28,2.08,5.3,3.26c2.03,1.18,4.48,2.27,7.35,3.26
				s6.45,1.49,10.72,1.49c3.54,0,6.59-0.42,9.17-1.27c2.58-0.85,4.71-2.01,6.41-3.48c1.69-1.47,2.95-3.15,3.76-5.03
				s1.22-3.89,1.22-6.02c0-2.87-0.81-5.23-2.43-7.07c-1.62-1.84-3.78-3.43-6.47-4.75c-2.69-1.33-5.75-2.5-9.17-3.54
				c-3.43-1.03-6.91-2.14-10.44-3.32c-3.54-1.18-7.02-2.54-10.44-4.09c-3.43-1.55-6.49-3.52-9.17-5.91
				c-2.69-2.39-4.85-5.3-6.47-8.73c-1.62-3.43-2.43-7.61-2.43-12.54c0-4.49,0.9-8.77,2.71-12.82c1.8-4.05,4.46-7.63,7.96-10.72
				c3.5-3.09,7.81-5.54,12.93-7.35c5.12-1.8,11.03-2.71,17.74-2.71c7.59,0,14.48,1.22,20.67,3.65s11.38,5.75,15.58,9.95
				L407.44,90.95z"/>
			<path class="st2" d="M492.87,90.95c-0.59,1.03-1.25,1.77-1.99,2.21s-1.66,0.66-2.76,0.66c-1.25,0-2.62-0.39-4.09-1.16
				c-1.47-0.77-3.2-1.64-5.19-2.6s-4.33-1.82-7.02-2.6c-2.69-0.77-5.84-1.16-9.45-1.16c-2.95,0-5.62,0.35-8.01,1.05
				c-2.4,0.7-4.42,1.7-6.08,2.98c-1.66,1.29-2.93,2.8-3.81,4.53c-0.88,1.73-1.33,3.59-1.33,5.58c0,2.65,0.81,4.86,2.43,6.63
				s3.76,3.3,6.41,4.59s5.67,2.45,9.06,3.48c3.39,1.03,6.85,2.14,10.39,3.32s7,2.54,10.39,4.09c3.39,1.55,6.41,3.45,9.06,5.69
				c2.65,2.25,4.79,4.97,6.41,8.18s2.43,7.09,2.43,11.66c0,5.3-0.96,10.21-2.87,14.7c-1.92,4.49-4.72,8.4-8.4,11.71
				c-3.69,3.32-8.27,5.9-13.76,7.74c-5.49,1.84-11.77,2.76-18.84,2.76c-3.91,0-7.68-0.35-11.33-1.05s-7.11-1.66-10.39-2.87
				c-3.28-1.22-6.34-2.67-9.17-4.37c-2.84-1.69-5.36-3.54-7.57-5.53l5.53-9.06c0.66-1.11,1.49-1.97,2.49-2.6
				c0.99-0.62,2.23-0.94,3.7-0.94c1.55,0,3.08,0.5,4.59,1.49s3.28,2.08,5.3,3.26c2.03,1.18,4.48,2.27,7.35,3.26
				c2.87,0.99,6.45,1.49,10.72,1.49c3.54,0,6.59-0.42,9.17-1.27c2.58-0.85,4.71-2.01,6.41-3.48c1.69-1.47,2.95-3.15,3.76-5.03
				s1.22-3.89,1.22-6.02c0-2.87-0.81-5.23-2.43-7.07c-1.62-1.84-3.78-3.43-6.47-4.75c-2.69-1.33-5.75-2.5-9.17-3.54
				c-3.43-1.03-6.91-2.14-10.44-3.32c-3.54-1.18-7.02-2.54-10.44-4.09c-3.43-1.55-6.49-3.52-9.17-5.91
				c-2.69-2.39-4.85-5.3-6.47-8.73c-1.62-3.43-2.43-7.61-2.43-12.54c0-4.49,0.9-8.77,2.71-12.82c1.8-4.05,4.46-7.63,7.96-10.72
				c3.5-3.09,7.81-5.54,12.93-7.35c5.12-1.8,11.03-2.71,17.74-2.71c7.59,0,14.48,1.22,20.67,3.65s11.38,5.75,15.58,9.95
				L492.87,90.95z"/>
		</g>
	</g>
</g>
</svg>
