<?xml version="1.0" encoding="utf-8"?>
<!-- Generator: Adobe Illustrator 23.1.1, SVG Export Plug-In . SVG Version: 6.00 Build 0)  -->
<svg version="1.1" xmlns="http://www.w3.org/2000/svg" xmlns:xlink="http://www.w3.org/1999/xlink" x="0px" y="0px"
	 viewBox="0 0 500 185" style="enable-background:new 0 0 500 185;" xml:space="preserve">
<style type="text/css">
	.st0{fill:url(#SVGID_1_);}
	.st1{fill:url(#SVGID_2_);}
	.st2{fill:url(#SVGID_3_);}
	.st3{fill:#323400;}
	.st4{fill:#CAC531;}
</style>
<g id="back">
	<g>
		<linearGradient id="SVGID_1_" gradientUnits="userSpaceOnUse" x1="-3630" y1="632.5" x2="-3630" y2="-447.5">
			<stop  offset="0" style="stop-color:#CAC531"/>
			<stop  offset="1" style="stop-color:#F3F9A7"/>
		</linearGradient>
		<rect x="-4590" y="-447.5" class="st0" width="1920" height="1080"/>
	</g>
	<g>
		<linearGradient id="SVGID_2_" gradientUnits="userSpaceOnUse" x1="-1690" y1="632.5" x2="-1690" y2="-447.5">
			<stop  offset="0" style="stop-color:#CAC531"/>
			<stop  offset="1" style="stop-color:#F3F9A7"/>
		</linearGradient>
		<rect x="-2650" y="-447.5" class="st1" width="1920" height="1080"/>
	</g>
	<g>
		<linearGradient id="SVGID_3_" gradientUnits="userSpaceOnUse" x1="-4334" y1="1164.5" x2="-4334" y2="652.5">
			<stop  offset="0" style="stop-color:#CAC531"/>
			<stop  offset="1" style="stop-color:#F3F9A7"/>
		</linearGradient>
		<rect x="-4590" y="652.5" class="st2" width="512" height="512"/>
	</g>
</g>
<g id="logo">
	<g>
		
			<text transform="matrix(1 0 0 1 -4182.2222 253.2559)" class="st3" style="font-family:'Lato-Semibold'; font-size:479.5729px; letter-spacing:-23;">iMass</text>
		<g>
			<path class="st3" d="M-4085-68.05c0,21.09-17.09,38.18-38.18,38.18c-21.09,0-38.18-17.09-38.18-38.18
				c0-21.09,30.5-76.24,38.18-76.24S-4085-89.13-4085-68.05z"/>
			<path class="st4" d="M-4104.15-63.85c0,10.51-8.52,19.03-19.03,19.03s-19.03-8.52-19.03-19.03c0-10.51,14.77-38.21,19.03-38.21
				C-4118.92-102.06-4104.15-74.37-4104.15-63.85z"/>
		</g>
	</g>
	<g>
		<g>
			<path class="st4" d="M33.88,36.46c0,2.14-0.42,4.16-1.27,6.08c-0.85,1.92-2.01,3.59-3.48,5.03c-1.47,1.44-3.19,2.58-5.14,3.43
				c-1.95,0.85-4.03,1.27-6.24,1.27c-2.14,0-4.14-0.42-6.02-1.27c-1.88-0.85-3.52-1.99-4.92-3.43c-1.4-1.44-2.53-3.11-3.37-5.03
				c-0.85-1.92-1.27-3.94-1.27-6.08c0-2.21,0.42-4.27,1.27-6.19c0.85-1.92,1.97-3.59,3.37-5.03c1.4-1.44,3.04-2.58,4.92-3.43
				c1.88-0.85,3.89-1.27,6.02-1.27c2.21,0,4.29,0.42,6.24,1.27c1.95,0.85,3.66,1.99,5.14,3.43c1.47,1.44,2.63,3.11,3.48,5.03
				C33.46,32.19,33.88,34.25,33.88,36.46z M29.9,70.5v112.73H6.14V70.5H29.9z"/>
			<path class="st4" d="M220.88,24.08v159.15h-22.77V74.15c0-1.77,0.06-3.7,0.17-5.8c0.11-2.1,0.28-4.22,0.5-6.36l-51.17,94.49
				c-1.99,3.91-5.05,5.86-9.17,5.86h-3.65c-4.2,0-7.26-1.95-9.17-5.86L73.67,61.77c0.22,2.14,0.39,4.27,0.5,6.41
				c0.11,2.14,0.17,4.13,0.17,5.97v109.08H51.56V24.08H70.9c2.28,0,4.05,0.2,5.3,0.61c1.25,0.41,2.39,1.64,3.43,3.7l51.06,92.51
				c1.11,2.14,2.16,4.33,3.15,6.58c0.99,2.25,1.9,4.55,2.71,6.91c0.88-2.36,1.82-4.7,2.82-7.02c0.99-2.32,2.04-4.55,3.15-6.69
				l50.29-92.28c1.03-2.06,2.17-3.3,3.43-3.7c1.25-0.4,3.02-0.61,5.3-0.61H220.88z"/>
			<path class="st4" d="M237.35,86.2c12.75-11.86,27.92-17.79,45.53-17.79c6.48,0,12.25,1.05,17.3,3.15
				c5.05,2.1,9.28,5.07,12.71,8.9c3.43,3.83,6.04,8.38,7.85,13.65c1.8,5.27,2.71,11.11,2.71,17.52v71.62h-10.61
				c-2.28,0-4.02-0.35-5.19-1.05c-1.18-0.7-2.17-2.12-2.98-4.25l-2.32-9.17c-2.87,2.58-5.71,4.88-8.51,6.91
				c-2.8,2.03-5.69,3.74-8.68,5.14c-2.98,1.4-6.19,2.45-9.62,3.15c-3.43,0.7-7.2,1.05-11.33,1.05c-4.57,0-8.82-0.63-12.77-1.88
				c-3.94-1.25-7.35-3.15-10.22-5.69c-2.87-2.54-5.14-5.69-6.8-9.45c-1.66-3.76-2.49-8.18-2.49-13.26c0-4.35,1.16-8.58,3.48-12.71
				c2.32-4.13,6.15-7.83,11.49-11.11c5.34-3.28,12.38-5.99,21.11-8.12c8.73-2.14,19.51-3.35,32.33-3.65v-7.52
				c0-8.1-1.73-14.15-5.19-18.13c-3.46-3.98-8.55-5.97-15.25-5.97c-4.57,0-8.4,0.57-11.49,1.71c-3.09,1.14-5.78,2.38-8.07,3.7
				c-2.28,1.33-4.31,2.56-6.08,3.7c-1.77,1.14-3.65,1.71-5.64,1.71c-1.62,0-3-0.42-4.14-1.27c-1.14-0.85-2.08-1.9-2.82-3.15
				L237.35,86.2z M300.34,133.94c-8.47,0.3-15.62,0.98-21.44,2.04c-5.82,1.07-10.54,2.43-14.15,4.09c-3.61,1.66-6.21,3.63-7.79,5.91
				c-1.59,2.28-2.38,4.79-2.38,7.51c0,2.65,0.42,4.92,1.27,6.8c0.85,1.88,2.03,3.43,3.54,4.64c1.51,1.22,3.28,2.1,5.3,2.65
				c2.03,0.55,4.25,0.83,6.69,0.83c6.19,0,11.51-1.16,15.97-3.48c4.46-2.32,8.79-5.69,12.99-10.11V133.94z"/>
			<path class="st4" d="M407.44,90.95c-0.59,1.03-1.25,1.77-1.99,2.21c-0.74,0.44-1.66,0.66-2.76,0.66c-1.25,0-2.62-0.39-4.09-1.16
				c-1.47-0.77-3.2-1.64-5.19-2.6c-1.99-0.96-4.33-1.82-7.02-2.6c-2.69-0.77-5.84-1.16-9.45-1.16c-2.95,0-5.62,0.35-8.01,1.05
				c-2.4,0.7-4.42,1.7-6.08,2.98c-1.66,1.29-2.93,2.8-3.81,4.53c-0.88,1.73-1.33,3.59-1.33,5.58c0,2.65,0.81,4.86,2.43,6.63
				c1.62,1.77,3.76,3.3,6.41,4.59c2.65,1.29,5.67,2.45,9.06,3.48c3.39,1.03,6.85,2.14,10.39,3.32c3.54,1.18,7,2.54,10.39,4.09
				c3.39,1.55,6.41,3.45,9.06,5.69c2.65,2.25,4.79,4.97,6.41,8.18c1.62,3.21,2.43,7.09,2.43,11.66c0,5.3-0.96,10.21-2.87,14.7
				c-1.92,4.49-4.72,8.4-8.4,11.71c-3.69,3.32-8.27,5.9-13.76,7.74c-5.49,1.84-11.77,2.76-18.84,2.76c-3.91,0-7.68-0.35-11.33-1.05
				c-3.65-0.7-7.11-1.66-10.39-2.87c-3.28-1.22-6.34-2.67-9.17-4.37c-2.84-1.69-5.36-3.54-7.57-5.53l5.53-9.06
				c0.66-1.11,1.49-1.97,2.49-2.6c0.99-0.62,2.23-0.94,3.7-0.94c1.55,0,3.08,0.5,4.59,1.49c1.51,0.99,3.28,2.08,5.3,3.26
				c2.03,1.18,4.48,2.27,7.35,3.26s6.45,1.49,10.72,1.49c3.54,0,6.59-0.42,9.17-1.27c2.58-0.85,4.71-2.01,6.41-3.48
				c1.69-1.47,2.95-3.15,3.76-5.03c0.81-1.88,1.22-3.89,1.22-6.02c0-2.87-0.81-5.23-2.43-7.07c-1.62-1.84-3.78-3.43-6.47-4.75
				c-2.69-1.33-5.75-2.5-9.17-3.54c-3.43-1.03-6.91-2.14-10.44-3.32c-3.54-1.18-7.02-2.54-10.44-4.09
				c-3.43-1.55-6.49-3.52-9.17-5.91c-2.69-2.39-4.85-5.3-6.47-8.73c-1.62-3.43-2.43-7.61-2.43-12.54c0-4.49,0.9-8.77,2.71-12.82
				c1.8-4.05,4.46-7.63,7.96-10.72c3.5-3.09,7.81-5.54,12.93-7.35c5.12-1.8,11.03-2.71,17.74-2.71c7.59,0,14.48,1.22,20.67,3.65
				c6.19,2.43,11.38,5.75,15.58,9.95L407.44,90.95z"/>
			<path class="st4" d="M492.87,90.95c-0.59,1.03-1.25,1.77-1.99,2.21c-0.74,0.44-1.66,0.66-2.76,0.66c-1.25,0-2.62-0.39-4.09-1.16
				c-1.47-0.77-3.2-1.64-5.19-2.6c-1.99-0.96-4.33-1.82-7.02-2.6c-2.69-0.77-5.84-1.16-9.45-1.16c-2.95,0-5.62,0.35-8.01,1.05
				c-2.4,0.7-4.42,1.7-6.08,2.98c-1.66,1.29-2.93,2.8-3.81,4.53c-0.88,1.73-1.33,3.59-1.33,5.58c0,2.65,0.81,4.86,2.43,6.63
				c1.62,1.77,3.76,3.3,6.41,4.59c2.65,1.29,5.67,2.45,9.06,3.48c3.39,1.03,6.85,2.14,10.39,3.32c3.54,1.18,7,2.54,10.39,4.09
				c3.39,1.55,6.41,3.45,9.06,5.69c2.65,2.25,4.79,4.97,6.41,8.18c1.62,3.21,2.43,7.09,2.43,11.66c0,5.3-0.96,10.21-2.87,14.7
				c-1.92,4.49-4.72,8.4-8.4,11.71c-3.69,3.32-8.27,5.9-13.76,7.74c-5.49,1.84-11.77,2.76-18.84,2.76c-3.91,0-7.68-0.35-11.33-1.05
				c-3.65-0.7-7.11-1.66-10.39-2.87c-3.28-1.22-6.34-2.67-9.17-4.37c-2.84-1.69-5.36-3.54-7.57-5.53l5.53-9.06
				c0.66-1.11,1.49-1.97,2.49-2.6c0.99-0.62,2.23-0.94,3.7-0.94c1.55,0,3.08,0.5,4.59,1.49c1.51,0.99,3.28,2.08,5.3,3.26
				c2.03,1.18,4.48,2.27,7.35,3.26c2.87,0.99,6.45,1.49,10.72,1.49c3.54,0,6.59-0.42,9.17-1.27c2.58-0.85,4.71-2.01,6.41-3.48
				c1.69-1.47,2.95-3.15,3.76-5.03c0.81-1.88,1.22-3.89,1.22-6.02c0-2.87-0.81-5.23-2.43-7.07c-1.62-1.84-3.78-3.43-6.47-4.75
				c-2.69-1.33-5.75-2.5-9.17-3.54c-3.43-1.03-6.91-2.14-10.44-3.32c-3.54-1.18-7.02-2.54-10.44-4.09
				c-3.43-1.55-6.49-3.52-9.17-5.91c-2.69-2.39-4.85-5.3-6.47-8.73c-1.62-3.43-2.43-7.61-2.43-12.54c0-4.49,0.9-8.77,2.71-12.82
				c1.8-4.05,4.46-7.63,7.96-10.72c3.5-3.09,7.81-5.54,12.93-7.35c5.12-1.8,11.03-2.71,17.74-2.71c7.59,0,14.48,1.22,20.67,3.65
				c6.19,2.43,11.38,5.75,15.58,9.95L492.87,90.95z"/>
		</g>
		<g>
			<path class="st4" d="M35.48,35.14c0,9.72-7.88,17.6-17.6,17.6c-9.72,0-17.6-7.88-17.6-17.6C0.28,25.42,14.34,0,17.88,0
				C21.42,0,35.48,25.42,35.48,35.14z"/>
			<g>
				<path class="st4" d="M26.65,37.07c0,4.84-3.93,8.77-8.77,8.77s-8.77-3.93-8.77-8.77c0-4.84,6.81-17.61,8.77-17.61
					C19.84,19.46,26.65,32.23,26.65,37.07z"/>
			</g>
		</g>
	</g>
	<g>
		<g>
			<g>
				<path class="st3" d="M-2157.1-21.67v244.58h-51.55V-21.67H-2157.1z"/>
				<path class="st3" d="M-1742.74-122.38v345.29h-49.4V-13.75c0-3.84,0.12-8.03,0.36-12.59c0.24-4.56,0.6-9.15,1.08-13.79
					l-111.02,205.02c-4.32,8.47-10.95,12.71-19.9,12.71h-7.91c-9.11,0-15.75-4.23-19.9-12.71l-112.7-205.5
					c0.48,4.64,0.84,9.27,1.08,13.91c0.24,4.64,0.36,8.95,0.36,12.95v236.67h-49.4v-345.29h41.96c4.95,0,8.79,0.44,11.51,1.32
					c2.72,0.88,5.19,3.56,7.43,8.03l110.78,200.7c2.4,4.64,4.68,9.39,6.83,14.27c2.16,4.88,4.11,9.87,5.88,14.99
					c1.92-5.11,3.96-10.19,6.11-15.23c2.16-5.04,4.44-9.87,6.83-14.51l109.1-200.22c2.24-4.47,4.71-7.15,7.43-8.03
					c2.72-0.88,6.55-1.32,11.51-1.32H-1742.74z"/>
				<path class="st3" d="M-1707.01,12.38c27.65-25.74,60.58-38.61,98.79-38.61c14.07,0,26.58,2.28,37.53,6.83
					c10.95,4.56,20.14,10.99,27.58,19.3c7.43,8.31,13.11,18.19,17.02,29.61c3.92,11.43,5.88,24.1,5.88,38.01v155.38h-23.02
					c-4.96,0-8.71-0.76-11.27-2.28c-2.56-1.52-4.72-4.59-6.47-9.23l-5.04-19.9c-6.23,5.6-12.39,10.59-18.46,14.99
					c-6.08,4.4-12.35,8.12-18.82,11.15c-6.47,3.04-13.43,5.31-20.86,6.83c-7.43,1.52-15.63,2.28-24.58,2.28
					c-9.91,0-19.14-1.36-27.7-4.08c-8.55-2.72-15.95-6.83-22.18-12.35c-6.23-5.51-11.15-12.35-14.75-20.5
					c-3.6-8.15-5.4-17.74-5.4-28.77c0-9.43,2.52-18.62,7.55-27.58c5.04-8.95,13.35-16.98,24.94-24.1
					c11.59-7.11,26.86-12.99,45.8-17.62c18.94-4.63,42.32-7.27,70.14-7.91V67.53c0-17.58-3.76-30.69-11.27-39.32
					c-7.52-8.63-18.55-12.95-33.09-12.95c-9.91,0-18.22,1.24-24.94,3.72c-6.71,2.48-12.55,5.16-17.5,8.03
					c-4.96,2.88-9.35,5.56-13.19,8.03c-3.84,2.48-7.91,3.72-12.23,3.72c-3.52,0-6.52-0.92-8.99-2.76c-2.48-1.84-4.52-4.11-6.12-6.83
					L-1707.01,12.38z M-1570.34,115.97c-18.38,0.64-33.89,2.12-46.52,4.44c-12.63,2.32-22.86,5.28-30.69,8.87
					c-7.83,3.6-13.47,7.88-16.9,12.83c-3.44,4.96-5.16,10.39-5.16,16.3c0,5.75,0.92,10.67,2.76,14.75
					c1.84,4.08,4.39,7.43,7.67,10.07c3.27,2.64,7.11,4.56,11.51,5.75c4.39,1.2,9.23,1.8,14.51,1.8c13.43,0,24.98-2.52,34.65-7.55
					c9.67-5.04,19.06-12.35,28.17-21.94V115.97z"/>
				<path class="st3" d="M-1337.99,22.69c-1.28,2.24-2.72,3.84-4.32,4.8c-1.6,0.96-3.6,1.44-6,1.44c-2.72,0-5.68-0.84-8.87-2.52
					c-3.2-1.68-6.95-3.56-11.27-5.63c-4.32-2.08-9.39-3.96-15.23-5.63c-5.84-1.68-12.67-2.52-20.5-2.52
					c-6.4,0-12.19,0.76-17.38,2.28c-5.2,1.52-9.59,3.68-13.19,6.47c-3.6,2.8-6.36,6.08-8.27,9.83c-1.92,3.76-2.88,7.79-2.88,12.11
					c0,5.75,1.76,10.55,5.28,14.39c3.51,3.84,8.15,7.16,13.91,9.95c5.76,2.8,12.31,5.32,19.66,7.55c7.35,2.24,14.87,4.64,22.54,7.19
					c7.67,2.56,15.19,5.51,22.54,8.87c7.35,3.36,13.91,7.47,19.66,12.35c5.75,4.88,10.39,10.79,13.91,17.74
					c3.52,6.95,5.28,15.39,5.28,25.3c0,11.51-2.08,22.14-6.23,31.89c-4.16,9.75-10.23,18.22-18.22,25.42
					c-8,7.19-17.95,12.79-29.85,16.79c-11.91,3.99-25.54,6-40.88,6c-8.47,0-16.66-0.76-24.58-2.28c-7.91-1.52-15.43-3.6-22.54-6.23
					c-7.12-2.64-13.75-5.79-19.9-9.47c-6.16-3.68-11.63-7.67-16.43-11.99l11.99-19.66c1.44-2.4,3.24-4.28,5.39-5.64
					c2.16-1.36,4.83-2.04,8.03-2.04c3.36,0,6.67,1.08,9.95,3.24c3.27,2.16,7.11,4.52,11.51,7.07c4.39,2.56,9.71,4.92,15.95,7.07
					s13.99,3.24,23.26,3.24c7.67,0,14.3-0.92,19.9-2.76c5.59-1.84,10.23-4.35,13.91-7.55c3.67-3.2,6.39-6.83,8.15-10.91
					c1.76-4.08,2.64-8.43,2.64-13.07c0-6.23-1.76-11.35-5.28-15.35c-3.52-3.99-8.19-7.43-14.03-10.31
					c-5.84-2.88-12.47-5.43-19.9-7.67c-7.43-2.24-14.99-4.63-22.66-7.19c-7.67-2.56-15.23-5.52-22.66-8.87
					c-7.43-3.36-14.07-7.63-19.9-12.83c-5.84-5.19-10.51-11.51-14.03-18.94c-3.52-7.43-5.27-16.5-5.27-27.22
					c0-9.75,1.96-19.02,5.87-27.82c3.92-8.79,9.67-16.54,17.27-23.26c7.59-6.71,16.94-12.03,28.05-15.95
					c11.11-3.92,23.94-5.88,38.49-5.88c16.46,0,31.41,2.64,44.84,7.91s24.7,12.47,33.81,21.58L-1337.99,22.69z"/>
				<path class="st3" d="M-1152.64,22.69c-1.28,2.24-2.72,3.84-4.32,4.8c-1.6,0.96-3.6,1.44-6,1.44c-2.72,0-5.68-0.84-8.87-2.52
					c-3.2-1.68-6.95-3.56-11.27-5.63c-4.32-2.08-9.39-3.96-15.23-5.63c-5.84-1.68-12.67-2.52-20.5-2.52
					c-6.4,0-12.19,0.76-17.38,2.28c-5.2,1.52-9.59,3.68-13.19,6.47c-3.6,2.8-6.36,6.08-8.27,9.83c-1.92,3.76-2.88,7.79-2.88,12.11
					c0,5.75,1.76,10.55,5.28,14.39c3.51,3.84,8.15,7.16,13.91,9.95c5.76,2.8,12.31,5.32,19.66,7.55c7.35,2.24,14.87,4.64,22.54,7.19
					c7.67,2.56,15.19,5.51,22.54,8.87c7.35,3.36,13.91,7.47,19.66,12.35c5.75,4.88,10.39,10.79,13.91,17.74
					c3.52,6.95,5.28,15.39,5.28,25.3c0,11.51-2.08,22.14-6.23,31.89c-4.16,9.75-10.23,18.22-18.22,25.42
					c-8,7.19-17.95,12.79-29.85,16.79c-11.91,3.99-25.54,6-40.88,6c-8.47,0-16.66-0.76-24.58-2.28c-7.91-1.52-15.43-3.6-22.54-6.23
					c-7.12-2.64-13.75-5.79-19.9-9.47c-6.16-3.68-11.63-7.67-16.43-11.99l11.99-19.66c1.44-2.4,3.24-4.28,5.39-5.64
					c2.16-1.36,4.83-2.04,8.03-2.04c3.36,0,6.67,1.08,9.95,3.24c3.27,2.16,7.11,4.52,11.51,7.07c4.39,2.56,9.71,4.92,15.95,7.07
					s13.99,3.24,23.26,3.24c7.67,0,14.3-0.92,19.9-2.76c5.59-1.84,10.23-4.35,13.91-7.55c3.67-3.2,6.39-6.83,8.15-10.91
					c1.76-4.08,2.64-8.43,2.64-13.07c0-6.23-1.76-11.35-5.28-15.35c-3.52-3.99-8.19-7.43-14.03-10.31
					c-5.84-2.88-12.47-5.43-19.9-7.67c-7.43-2.24-14.99-4.63-22.66-7.19c-7.67-2.56-15.23-5.52-22.66-8.87
					c-7.43-3.36-14.07-7.63-19.9-12.83c-5.84-5.19-10.51-11.51-14.03-18.94c-3.52-7.43-5.27-16.5-5.27-27.22
					c0-9.75,1.96-19.02,5.87-27.82c3.92-8.79,9.67-16.54,17.27-23.26c7.59-6.71,16.94-12.03,28.05-15.95
					c11.11-3.92,23.94-5.88,38.49-5.88c16.46,0,31.41,2.64,44.84,7.91s24.7,12.47,33.81,21.58L-1152.64,22.69z"/>
			</g>
			<g>
				<path class="st3" d="M-2145-98.39c0,21.09-17.09,38.18-38.18,38.18c-21.09,0-38.18-17.09-38.18-38.18
					c0-21.09,30.5-76.24,38.18-76.24C-2175.5-174.63-2145-119.47-2145-98.39z"/>
				<path class="st4" d="M-2164.15-94.19c0,10.51-8.52,19.03-19.03,19.03c-10.51,0-19.03-8.52-19.03-19.03
					c0-10.51,14.77-38.21,19.03-38.21C-2178.92-132.4-2164.15-104.7-2164.15-94.19z"/>
			</g>
		</g>
	</g>
	
		<text transform="matrix(1 0 0 1 -2232.5361 354.3596)" class="st3" style="font-family:'Lato-Semibold'; font-size:72.6384px; letter-spacing:-3;">El Tripadvisor de los templos religiosos</text>
	<g>
		<path class="st3" d="M-4197.33,976.63c0,75.48-61.19,136.67-136.67,136.67s-136.67-61.19-136.67-136.67
			c0-75.48,109.18-272.93,136.67-272.93S-4197.33,901.14-4197.33,976.63z"/>
		<path class="st4" d="M-4265.87,991.63c0,37.63-30.5,68.13-68.13,68.13c-37.63,0-68.13-30.5-68.13-68.13
			c0-37.63,52.89-136.78,68.13-136.78S-4265.87,954-4265.87,991.63z"/>
	</g>
	<g>
		<g>
			<path class="st3" d="M-3802,1004.5c-35.51,0-64.4-28.89-64.4-64.4c0-18.57,13.96-51.89,27.03-76.89
				c13.19-25.24,29.86-50.71,37.37-50.71s24.18,25.47,37.37,50.71c13.07,25,27.03,58.33,27.03,76.89
				C-3737.6,975.61-3766.49,1004.5-3802,1004.5z"/>
			<path class="st4" d="M-3802,813.5c12.76,0,63.4,91.59,63.4,126.6c0,35.01-28.38,63.4-63.4,63.4c-35.01,0-63.4-28.38-63.4-63.4
				C-3865.4,905.09-3814.76,813.5-3802,813.5 M-3802,811.5c-11.15,0-35.51,46-38.26,51.24c-13.12,25.11-27.14,58.61-27.14,77.36
				c0,36.06,29.34,65.4,65.4,65.4c36.06,0,65.4-29.34,65.4-65.4c0-18.75-14.02-52.25-27.14-77.36
				C-3766.49,857.5-3790.85,811.5-3802,811.5L-3802,811.5z"/>
		</g>
		<path class="st4" d="M-3770.4,947.06c0,17.45-14.15,31.6-31.6,31.6c-17.45,0-31.6-14.15-31.6-31.6c0-17.45,24.53-63.45,31.6-63.45
			S-3770.4,929.61-3770.4,947.06z"/>
	</g>
</g>
</svg>
